<?xml version="1.0" standalone="no"?>
<!DOCTYPE svg PUBLIC "-//W3C//DTD SVG 20010904//EN"
 "http://www.w3.org/TR/2001/REC-SVG-20010904/DTD/svg10.dtd">
<svg version="1.0" xmlns="http://www.w3.org/2000/svg"
 width="512.000000pt" height="512.000000pt" viewBox="0 0 512.000000 512.000000"
 preserveAspectRatio="xMidYMid meet">
<metadata>
Created by potrace 1.14, written by Peter Selinger 2001-2017
</metadata>
<g transform="translate(0.000000,512.000000) scale(0.100000,-0.100000)"
fill="#000000" stroke="none">
<path d="M2338 4635 c-1 -1 -41 -6 -88 -9 -47 -4 -94 -9 -105 -11 -11 -2 -42
-7 -70 -10 -27 -3 -59 -8 -70 -10 -11 -3 -32 -7 -47 -10 -345 -64 -690 -219
-943 -423 -322 -261 -554 -641 -650 -1066 -37 -168 -40 -206 -40 -557 l0 -315
38 -76 c68 -139 185 -215 346 -225 l91 -6 2 -631 c3 -706 -1 -666 76 -741 72
-69 -42 -65 1680 -65 1172 0 1564 3 1594 12 22 6 62 31 88 55 83 74 80 49 80
755 l0 618 58 0 c187 1 345 108 401 274 19 56 20 83 19 361 -1 318 -11 427
-57 600 -12 44 -23 87 -25 95 -10 39 -62 173 -96 247 -93 200 -225 388 -384
546 -244 241 -556 413 -924 508 -111 28 -127 32 -207 45 -22 3 -47 8 -55 9 -8
2 -44 6 -80 10 -36 4 -76 9 -90 12 -30 5 -537 13 -542 8z"/>
</g>
</svg>
